{
    "asset" : {
        "generator" : "Khronos glTF Blender I/O v3.2.40",
        "version" : "2.0"
    },
    "extensionsUsed" : [
        "KHR_materials_transmission"
    ],
    "scene" : 0,
    "scenes" : [
        {
            "name" : "Scene",
            "nodes" : [
                0,
                1,
                2,
                3,
                4,
                5,
                6
            ]
        }
    ],
    "nodes" : [
        {
            "mesh" : 0,
            "name" : "Cylinder",
            "rotation" : [
                0,
                0,
                -0.7071067094802856,
                0.7071068286895752
            ],
            "scale" : [
                0.07500000298023224,
                0.30000001192092896,
                0.07500000298023224
            ],
            "translation" : [
                -0.31219133734703064,
                0.26399192214012146,
                0
            ]
        },
        {
            "mesh" : 1,
            "name" : "Cylinder.003",
            "rotation" : [
                0,
                0,
                -0.7071067094802856,
                0.7071068286895752
            ],
            "scale" : [
                0.07500000298023224,
                0.30000001192092896,
                0.07500000298023224
            ],
            "translation" : [
                -0.31219133734703064,
                -0.30140212178230286,
                0
            ]
        },
        {
            "mesh" : 2,
            "name" : "Torus",
            "rotation" : [
                0.7071068286895752,
                0,
                0,
                0.7071068286895752
            ],
            "scale" : [
                0.30000001192092896,
                0.30000001192092896,
                0.30000001192092896
            ],
            "translation" : [
                1.449393391609192,
                -0.020011097192764282,
                0
            ]
        },
        {
            "mesh" : 3,
            "name" : "Torus.001",
            "rotation" : [
                0.7071068286895752,
                0,
                0,
                0.7071068286895752
            ],
            "scale" : [
                0.30000001192092896,
                0.30000001192092896,
                0.30000001192092896
            ],
            "translation" : [
                0.4939083158969879,
                -0.015327364206314087,
                0
            ]
        },
        {
            "mesh" : 4,
            "name" : "NurbsPath",
            "translation" : [
                -1.749858021736145,
                0.2716268002986908,
                0
            ]
        },
        {
            "mesh" : 5,
            "name" : "Cylinder.002",
            "rotation" : [
                0,
                0,
                -0.7071067094802856,
                0.7071068286895752
            ],
            "scale" : [
                0.07500000298023224,
                0.30000001192092896,
                0.07500000298023224
            ],
            "translation" : [
                -0.31219133734703064,
                -0.019266515970230103,
                0
            ]
        },
        {
            "mesh" : 6,
            "name" : "Cylinder.001",
            "rotation" : [
                0,
                0,
                -0.987688422203064,
                0.15643450617790222
            ],
            "scale" : [
                0.09000000357627869,
                0.07651876658201218,
                0.09000000357627869
            ],
            "translation" : [
                -1.7662009000778198,
                0.32241591811180115,
                0
            ]
        }
    ],
    "materials" : [
        {
            "doubleSided" : true,
            "emissiveFactor" : [
                1,
                1,
                1
            ],
            "emissiveTexture" : {
                "index" : 0
            },
            "extensions" : {
                "KHR_materials_transmission" : {
                    "transmissionFactor" : 1
                }
            },
            "name" : "Blue",
            "pbrMetallicRoughness" : {
                "baseColorFactor" : [
                    0.019382359459996223,
                    0.3613068759441376,
                    0.45078593492507935,
                    1
                ],
                "metallicFactor" : 0,
                "roughnessFactor" : 0
            }
        }
    ],
    "meshes" : [
        {
            "name" : "Cylinder",
            "primitives" : [
                {
                    "attributes" : {
                        "POSITION" : 0,
                        "NORMAL" : 1,
                        "TEXCOORD_0" : 2
                    },
                    "indices" : 3,
                    "material" : 0
                }
            ]
        },
        {
            "name" : "Cylinder.003",
            "primitives" : [
                {
                    "attributes" : {
                        "POSITION" : 4,
                        "NORMAL" : 5,
                        "TEXCOORD_0" : 6
                    },
                    "indices" : 3,
                    "material" : 0
                }
            ]
        },
        {
            "name" : "Torus",
            "primitives" : [
                {
                    "attributes" : {
                        "POSITION" : 7,
                        "NORMAL" : 8,
                        "TEXCOORD_0" : 9
                    },
                    "indices" : 10,
                    "material" : 0
                }
            ]
        },
        {
            "name" : "Torus.001",
            "primitives" : [
                {
                    "attributes" : {
                        "POSITION" : 11,
                        "NORMAL" : 12,
                        "TEXCOORD_0" : 13
                    },
                    "indices" : 10,
                    "material" : 0
                }
            ]
        },
        {
            "name" : "NurbsPath",
            "primitives" : [
                {
                    "attributes" : {
                        "POSITION" : 14,
                        "NORMAL" : 15,
                        "TEXCOORD_0" : 16
                    },
                    "indices" : 17,
                    "material" : 0
                }
            ]
        },
        {
            "name" : "Cylinder.006",
            "primitives" : [
                {
                    "attributes" : {
                        "POSITION" : 18,
                        "NORMAL" : 19,
                        "TEXCOORD_0" : 20
                    },
                    "indices" : 3,
                    "material" : 0
                }
            ]
        },
        {
            "name" : "Cylinder.009",
            "primitives" : [
                {
                    "attributes" : {
                        "POSITION" : 21,
                        "NORMAL" : 22,
                        "TEXCOORD_0" : 23
                    },
                    "indices" : 24,
                    "material" : 0
                }
            ]
        }
    ],
    "textures" : [
        {
            "sampler" : 0,
            "source" : 0
        }
    ],
    "images" : [
        {
            "mimeType" : "image/png",
            "name" : "wedo-back",
            "uri" : "wedo-back.png"
        }
    ],
    "accessors" : [
        {
            "bufferView" : 0,
            "componentType" : 5126,
            "count" : 498,
            "max" : [
                1,
                1,
                1
            ],
            "min" : [
                -1,
                -1,
                -1
            ],
            "type" : "VEC3"
        },
        {
            "bufferView" : 1,
            "componentType" : 5126,
            "count" : 498,
            "type" : "VEC3"
        },
        {
            "bufferView" : 2,
            "componentType" : 5126,
            "count" : 498,
            "type" : "VEC2"
        },
        {
            "bufferView" : 3,
            "componentType" : 5123,
            "count" : 1524,
            "type" : "SCALAR"
        },
        {
            "bufferView" : 4,
            "componentType" : 5126,
            "count" : 498,
            "max" : [
                1,
                1,
                1
            ],
            "min" : [
                -1,
                -1,
                -1
            ],
            "type" : "VEC3"
        },
        {
            "bufferView" : 5,
            "componentType" : 5126,
            "count" : 498,
            "type" : "VEC3"
        },
        {
            "bufferView" : 6,
            "componentType" : 5126,
            "count" : 498,
            "type" : "VEC2"
        },
        {
            "bufferView" : 7,
            "componentType" : 5126,
            "count" : 637,
            "max" : [
                1.25,
                0.25,
                1.25
            ],
            "min" : [
                -1.25,
                -0.25,
                -1.25
            ],
            "type" : "VEC3"
        },
        {
            "bufferView" : 8,
            "componentType" : 5126,
            "count" : 637,
            "type" : "VEC3"
        },
        {
            "bufferView" : 9,
            "componentType" : 5126,
            "count" : 637,
            "type" : "VEC2"
        },
        {
            "bufferView" : 10,
            "componentType" : 5123,
            "count" : 3456,
            "type" : "SCALAR"
        },
        {
            "bufferView" : 11,
            "componentType" : 5126,
            "count" : 637,
            "max" : [
                1.25,
                0.25,
                1.2339425086975098
            ],
            "min" : [
                -0.9903700351715088,
                -0.2500000298023224,
                -1.2255303859710693
            ],
            "type" : "VEC3"
        },
        {
            "bufferView" : 12,
            "componentType" : 5126,
            "count" : 637,
            "type" : "VEC3"
        },
        {
            "bufferView" : 13,
            "componentType" : 5126,
            "count" : 637,
            "type" : "VEC2"
        },
        {
            "bufferView" : 14,
            "componentType" : 5126,
            "count" : 2028,
            "max" : [
                1.0054270029067993,
                0.0626748576760292,
                0.09000001847743988
            ],
            "min" : [
                -0.0842379480600357,
                -0.6834089159965515,
                -0.09000010043382645
            ],
            "type" : "VEC3"
        },
        {
            "bufferView" : 15,
            "componentType" : 5126,
            "count" : 2028,
            "type" : "VEC3"
        },
        {
            "bufferView" : 16,
            "componentType" : 5126,
            "count" : 2028,
            "type" : "VEC2"
        },
        {
            "bufferView" : 17,
            "componentType" : 5123,
            "count" : 11160,
            "type" : "SCALAR"
        },
        {
            "bufferView" : 18,
            "componentType" : 5126,
            "count" : 498,
            "max" : [
                1,
                1,
                1
            ],
            "min" : [
                -1,
                -1,
                -1
            ],
            "type" : "VEC3"
        },
        {
            "bufferView" : 19,
            "componentType" : 5126,
            "count" : 498,
            "type" : "VEC3"
        },
        {
            "bufferView" : 20,
            "componentType" : 5126,
            "count" : 498,
            "type" : "VEC2"
        },
        {
            "bufferView" : 21,
            "componentType" : 5126,
            "count" : 408,
            "max" : [
                1,
                5.196199417114258,
                1.0000014305114746
            ],
            "min" : [
                -10.850671768188477,
                -0.699999988079071,
                -1
            ],
            "type" : "VEC3"
        },
        {
            "bufferView" : 22,
            "componentType" : 5126,
            "count" : 408,
            "type" : "VEC3"
        },
        {
            "bufferView" : 23,
            "componentType" : 5126,
            "count" : 408,
            "type" : "VEC2"
        },
        {
            "bufferView" : 24,
            "componentType" : 5123,
            "count" : 2100,
            "type" : "SCALAR"
        }
    ],
    "bufferViews" : [
        {
            "buffer" : 0,
            "byteLength" : 5976,
            "byteOffset" : 0
        },
        {
            "buffer" : 0,
            "byteLength" : 5976,
            "byteOffset" : 5976
        },
        {
            "buffer" : 0,
            "byteLength" : 3984,
            "byteOffset" : 11952
        },
        {
            "buffer" : 0,
            "byteLength" : 3048,
            "byteOffset" : 15936
        },
        {
            "buffer" : 0,
            "byteLength" : 5976,
            "byteOffset" : 18984
        },
        {
            "buffer" : 0,
            "byteLength" : 5976,
            "byteOffset" : 24960
        },
        {
            "buffer" : 0,
            "byteLength" : 3984,
            "byteOffset" : 30936
        },
        {
            "buffer" : 0,
            "byteLength" : 7644,
            "byteOffset" : 34920
        },
        {
            "buffer" : 0,
            "byteLength" : 7644,
            "byteOffset" : 42564
        },
        {
            "buffer" : 0,
            "byteLength" : 5096,
            "byteOffset" : 50208
        },
        {
            "buffer" : 0,
            "byteLength" : 6912,
            "byteOffset" : 55304
        },
        {
            "buffer" : 0,
            "byteLength" : 7644,
            "byteOffset" : 62216
        },
        {
            "buffer" : 0,
            "byteLength" : 7644,
            "byteOffset" : 69860
        },
        {
            "buffer" : 0,
            "byteLength" : 5096,
            "byteOffset" : 77504
        },
        {
            "buffer" : 0,
            "byteLength" : 24336,
            "byteOffset" : 82600
        },
        {
            "buffer" : 0,
            "byteLength" : 24336,
            "byteOffset" : 106936
        },
        {
            "buffer" : 0,
            "byteLength" : 16224,
            "byteOffset" : 131272
        },
        {
            "buffer" : 0,
            "byteLength" : 22320,
            "byteOffset" : 147496
        },
        {
            "buffer" : 0,
            "byteLength" : 5976,
            "byteOffset" : 169816
        },
        {
            "buffer" : 0,
            "byteLength" : 5976,
            "byteOffset" : 175792
        },
        {
            "buffer" : 0,
            "byteLength" : 3984,
            "byteOffset" : 181768
        },
        {
            "buffer" : 0,
            "byteLength" : 4896,
            "byteOffset" : 185752
        },
        {
            "buffer" : 0,
            "byteLength" : 4896,
            "byteOffset" : 190648
        },
        {
            "buffer" : 0,
            "byteLength" : 3264,
            "byteOffset" : 195544
        },
        {
            "buffer" : 0,
            "byteLength" : 4200,
            "byteOffset" : 198808
        }
    ],
    "samplers" : [
        {
            "magFilter" : 9729,
            "minFilter" : 9987
        }
    ],
    "buffers" : [
        {
            "byteLength" : 203008,
            "uri" : "wedo-green.bin"
        }
    ]
}
